PathFileType	4	(X/Y/Z)	F:\MotionCapture\20160217\3\Generated_files\2_Test04-Dynamic.trc
DataRate	CameraRate	NumFrames	NumMarkers	Units	OrigDataRate	OrigDataStartFrame	OrigNumFrames
120.00	120.00	       5	39	mm	120.00	107	       849
Frame#	Time	Top.Head			Front.Head			Rear.Head			R.Shoulder			R.Offset			R.Elbow			R.Wrist			L.Shoulder			L.Elbow			L.Wrist			R.ASIS			L.ASIS			V.Sacral			R.Thigh			R.Knee			R.Shank			R.Ankle			R.Heel			R.Toe			L.Thigh			L.Knee			L.Shank			L.Ankle			L.Heel			L.Toe			R1			R2			R3			R4			R5			R6			R7			L1			L2			L3			L4			L5			L6			L7			V_Mid_ASIS			V_Pelvis_Origin			V_R.Hip_JC			V_L.Hip_JC			V_R.Knee_JC			V_L.Knee_JC			V_R.Ankle_JC			V_L.Ankle_JC			V_Mid_Hip			V_Mid_Shoulder			V_R.Hand			V_L.Hand			V_R.Toe_Offset_Static			V_L.Toe_Offset_Static			V_R.Toe_Offset			V_L.Toe_Offset			
		X1	Y1	Z1	X2	Y2	Z2	X3	Y3	Z3	X4	Y4	Z4	X5	Y5	Z5	X6	Y6	Z6	X7	Y7	Z7	X8	Y8	Z8	X9	Y9	Z9	X10	Y10	Z10	X11	Y11	Z11	X12	Y12	Z12	X13	Y13	Z13	X14	Y14	Z14	X15	Y15	Z15	X16	Y16	Z16	X17	Y17	Z17	X18	Y18	Z18	X19	Y19	Z19	X20	Y20	Z20	X21	Y21	Z21	X22	Y22	Z22	X23	Y23	Z23	X24	Y24	Z24	X25	Y25	Z25	X26	Y26	Z26	X27	Y27	Z27	X28	Y28	Z28	X29	Y29	Z29	X30	Y30	Z30	X31	Y31	Z31	X32	Y32	Z32	X33	Y33	Z33	X34	Y34	Z34	X35	Y35	Z35	X36	Y36	Z36	X37	Y37	Z37	X38	Y38	Z38	X39	Y39	Z39	

107	0.883	2463.50366	127.18063	1735.17554	2337.35962	130.33760	1674.76282	2555.90210	117.49097	1645.76147	2459.99927	323.22754	1431.00879	2597.22607	48.24981	1287.43921	2481.75684	431.78119	1107.91479	2353.00732	411.62201	879.11591	2432.01318	-84.64692	1431.69519	2437.22314	-181.05363	1106.83289	2338.28198	-163.71144	869.47772	2415.35962	272.42157	953.53326	2388.70728	-14.73969	961.82751	2626.30811	109.13714	951.45837	2341.96655	253.67210	583.25317	2416.16821	304.23077	468.98135	2440.99658	237.84599	235.06905	2522.99438	309.61526	76.01189	2588.02490	248.05354	53.69845	2378.55615	293.06631	47.21218	2344.58838	19.77388	631.99506	2424.19263	-44.79688	472.95367	2436.72046	23.88409	326.17801	2518.09766	-65.14810	71.53968	2591.05664	-20.16906	51.61444	2381.05566	-33.11327	46.80093	2332.41943	273.13544	44.08812	2373.54175	258.37494	55.36982	2469.14795	223.44910	67.61440	2545.10645	220.26035	55.32393	2561.27295	294.21915	55.27291	2483.29150	320.37473	41.21128	2416.62500	338.20474	40.51852	2339.43262	5.35777	40.84842	2377.24805	6.87667	52.33234	2476.97583	30.49981	57.47112	2560.88770	17.24994	51.27636	2558.12500	-54.36828	50.03668	2479.76611	-70.27784	36.06392	2417.69873	-76.32344	43.00001																																																	3290.10742	-208.02179	-164.39061	2921.13428	150.48251	-100.65533	3240.15015	231.66623	-159.15141	
108	0.892	2463.35034	125.52397	1734.92419	2337.08105	129.00479	1673.98511	2555.81104	116.04147	1645.69568	2460.29272	322.89804	1431.03235	2597.92651	47.56739	1287.26294	2483.22607	430.26935	1108.13501	2353.75757	413.17365	879.26758	2432.56885	-85.77106	1431.12659	2435.95068	-181.47269	1106.03906	2338.06177	-163.09729	868.82928	2415.12036	270.90564	953.30731	2389.81909	-16.33138	962.05627	2626.97388	108.52808	950.90234	2341.15747	254.28392	582.87567	2414.59253	304.92279	469.01910	2439.91455	238.86380	235.68874	2523.29810	310.32553	76.72890	2588.23389	248.65862	54.44590	2378.52417	293.17062	47.28253	2344.70093	18.96362	632.23779	2423.67236	-45.31828	472.75644	2436.31543	23.54507	326.05264	2518.11060	-65.13630	71.38689	2591.00830	-20.05692	51.45283	2381.06445	-33.13007	46.75105	2332.65771	273.27838	44.19603	2373.77417	258.68967	55.86190	2470.33032	224.41393	68.25691	2544.98169	221.17873	56.44371	2561.51904	294.98254	56.02113	2483.58936	319.97095	40.80998	2416.54785	338.11035	40.47380	2339.30811	5.36226	40.71309	2377.11108	6.89929	52.03300	2477.09375	30.59987	57.36563	2560.90601	17.26324	51.23033	2558.12183	-54.27880	49.87133	2479.82739	-70.70296	35.93522	2417.35791	-75.78522	42.95626																																																	2922.03418	150.62195	-100.46899	3241.51294	232.09421	-159.62822	3290.62524	-208.62801	-164.99475	
109	0.900	2463.09985	124.31322	1734.38696	2336.61011	127.37939	1673.55847	2555.85254	114.66692	1645.66528	2460.99951	321.60751	1431.14954	2598.50928	47.01902	1286.87097	2484.86279	429.38782	1108.41809	2355.02173	415.53262	879.78680	2432.89307	-86.35985	1430.54468	2435.28662	-182.15182	1105.24365	2337.56958	-162.12215	868.09955	2415.00879	269.55237	952.90363	2390.15039	-17.41869	962.08911	2627.40527	107.76807	950.44800	2338.33521	255.74696	583.37067	2412.59399	306.69943	469.67395	2439.92188	240.07637	235.85541	2523.75366	311.11447	77.83894	2588.53784	249.62604	55.52156	2378.42578	293.35083	47.46396	2345.54858	18.64327	632.09955	2423.64185	-45.75267	472.08521	2435.84106	23.14319	326.04099	2518.28516	-65.10696	71.26923	2590.93555	-19.98469	51.31491	2381.04126	-33.12514	46.73885	2332.89478	273.41257	44.25760	2373.90332	259.38333	56.53999	2470.49243	225.14403	70.09313	2545.04419	221.59740	57.46439	2560.82764	295.05594	54.94229	2483.44971	320.21393	40.43008	2416.65234	338.07111	40.44063	2339.24072	5.22325	40.65404	2377.23999	6.61749	52.20733	2477.17896	30.96923	57.21444	2560.92139	17.39657	51.10185	2558.08936	-54.19407	49.79266	2479.86157	-70.74052	35.97099	2417.17236	-75.89367	42.85975																																																	3287.74878	-207.69034	-164.34450	
110	0.908	2462.51489	122.85141	1734.00647	2336.58789	126.39561	1672.75989	2555.87744	113.07918	1645.70862	2461.64624	320.58322	1431.21570	2599.25977	46.34739	1286.47864	2486.57495	428.53906	1108.49573	2355.17139	416.34296	880.14099	2433.30664	-87.42193	1429.92529	2434.60571	-183.09077	1104.42505	2337.43774	-160.62653	866.98236	2416.27979	268.11053	952.33807	2391.34131	-18.74823	961.20886	2627.88281	106.90404	949.78955	2336.94434	256.85239	583.71021	2410.85278	307.53568	469.93677	2438.16650	241.93088	236.19069	2524.55933	312.99496	79.63163	2588.70361	250.19798	56.64764	2378.51709	293.82843	47.73001	2347.33936	18.57417	632.03577	2423.88892	-46.52940	472.21661	2435.33667	22.53031	326.21866	2518.09180	-64.81824	70.68536	2590.93701	-19.94574	51.18224	2380.98755	-33.11485	46.60352	2332.84302	274.01501	44.40648	2374.45923	260.73538	57.59794	2470.38647	226.90685	71.94437	2545.28662	223.02776	59.07719	2560.95581	295.93396	55.76350	2483.71509	321.13724	40.34590	2416.65796	338.07172	40.44667	2339.18506	5.20251	40.55782	2377.14063	6.55224	51.95808	2477.25879	30.99751	57.13679	2560.97070	17.50988	50.97104	2558.12109	-54.16628	49.75546	2480.62280	-71.61610	36.82949	2417.17480	-75.97206	42.82681																																																	3289.08154	-207.97020	-164.52528	
111	0.917	2462.56372	121.47923	1734.02087	2337.01440	125.19232	1672.49304	2555.86646	112.07505	1645.80762	2461.94751	319.61255	1431.08557	2600.10547	45.90990	1286.07776	2488.18555	427.82413	1108.49219	2356.49731	418.22729	880.45166	2433.92871	-88.48888	1429.23401	2433.99634	-183.43279	1104.19922	2337.00000	-159.43158	866.23175	2416.29272	267.03964	951.98981	2392.82080	-19.94842	961.04987	2628.40503	106.05105	949.20471	2335.17383	257.71738	584.07538	2409.23193	308.51694	470.59836	2437.31445	243.13823	236.98346	2524.60376	314.08438	80.73487	2589.03101	251.46204	58.19583	2378.86768	295.02893	48.23489	2348.85278	18.19999	632.09039	2424.77710	-47.59083	472.38516	2434.87476	22.67578	326.40018	2518.16455	-65.07564	70.49564	2590.97241	-20.00575	51.06738	2381.08081	-33.15648	46.59268	2332.72998	274.81235	44.67538	2374.50342	261.98523	59.14202	2470.51685	228.32536	73.16441	2545.60962	224.07146	60.43887	2561.55835	297.23669	56.38623	2484.00366	322.47406	40.21152	2416.68213	337.97644	40.41960	2339.12988	5.26683	40.44345	2377.04517	6.57955	51.89124	2477.38745	31.00414	57.11272	2561.02466	17.52573	50.92445	2558.15308	-54.19079	49.59768	2480.67139	-71.47793	37.31056	2417.35278	-76.57272	42.72200																																																	3285.14893	-207.12950	-163.95506	3005.42456	182.35716	-150.10805	
